# xmcd CD database file
#
# Track frame offsets:
#	182
#	12820
#	26105
#	39075
#	53367
#	66587
#	78772
#	91240
#	103937
#	117572
#	131580
#	146217
#
# Disc length: 2138 seconds
#
# Revision: 0
# Processed by: cddbd v1.5.2PL0 Copyright (c) Steve Scherf et al.
# Submitted via: CDex 1.70beta2
#
DISCID=9d08580c
DTITLE=Various Artist - Classic Pianos
DYEAR=1989
DGENRE=Jazz
TTITLE0=James P. Johnson - Blueberry Rhyme
TTITLE1=James P. Johnson - Blues for Fats
TTITLE2=Earl Hines Trio - Honeysuckle Rose
TTITLE3=Earl Hines Trio - Squeeze Me
TTITLE4=Earl Hines Trio - My Fate Is In Your Hands
TTITLE5=Earl Hines Trio - I've Got a Feeling I'm Fallin'
TTITLE6=Art Hodes Trio - I've Found a New Baby
TTITLE7=Art Hodes Trio - Four or Five Times
TTITLE8=Errol Garner - Yesterdays
TTITLE9=Errol Garner - Loot to Boot
TTITLE10=Errol Garner - Gaslight
TTITLE11=Errol Garner - Sweet Lorraine
EXTD=YEAR: 1989
EXTT0=
EXTT1=
EXTT2=
EXTT3=
EXTT4=
EXTT5=
EXTT6=
EXTT7=
EXTT8=
EXTT9=
EXTT10=
EXTT11=
PLAYORDER=
